<svg xmlns="http://www.w3.org/2000/svg" width="800" height="400" viewBox="0 0 800 400">
  <rect width="800" height="400" fill="#dbeafe"/>
  <g transform="translate(400, 200)">
    <path d="M-60 -40 C-60 -50, -50 -60, -40 -60 L40 -60 C50 -60, 60 -50, 60 -40 L60 40 C60 50, 50 60, 40 60 L-40 60 C-50 60, -60 50, -60 40 Z" fill="#3b82f6" opacity="0.2"/>
    <path d="M-40 -20 L40 -20 L40 20 L-40 20 Z" fill="#1e40af"/>
    <rect x="-35" y="-15" width="70" height="8" fill="#60a5fa"/>
    <rect x="-35" y="7" width="70" height="8" fill="#60a5fa"/>
    <circle cx="0" cy="0" r="25" fill="none" stroke="#1e40af" stroke-width="4"/>
    <path d="M-15 -5 L-15 5 L-5 5 L-5 15 L5 15 L5 5 L15 5 L15 -5" fill="none" stroke="#1e40af" stroke-width="3"/>
  </g>
  <text x="400" y="320" font-family="Arial, sans-serif" font-size="24" fill="#1e40af" text-anchor="middle" font-weight="bold">
    Professional Plumbing Services
  </text>
</svg>